<svg width="26" height="26" viewBox="0 0 26 26" fill="none" xmlns="http://www.w3.org/2000/svg">
<path d="M3.17617 6.48924C3.06652 6.71489 3 6.96432 3 7.23074V18.7692C3 19.0355 3.06645 19.2849 3.17602 19.5105L9.78863 13L3.17617 6.48924Z" fill="#222222"/>
<path d="M15.3828 13.8159L13.3752 15.7156C13.2607 15.8283 13.1108 15.8847 12.9609 15.8847C12.811 15.8847 12.6611 15.8283 12.5467 15.7156L10.6171 13.8158L4.00439 20.3264C4.23361 20.4344 4.48709 20.5 4.75775 20.5H21.2421C21.5127 20.5 21.766 20.4345 21.9952 20.3265L15.3828 13.8159Z" fill="#222222"/>
<path d="M22.8241 6.4896L16.2115 13.0001L22.8239 19.5108C22.9335 19.2851 23 19.0357 23 18.7693V7.23083C23 6.96457 22.9337 6.71518 22.8241 6.4896Z" fill="#222222"/>
<path d="M21.2422 5.5H4.75785C4.48726 5.5 4.23394 5.5655 4.00476 5.67346L12.961 14.4919L14.9684 12.5924L21.9956 5.67362C21.7664 5.56558 21.5129 5.5 21.2422 5.5Z" fill="#222222"/>
</svg>
