<svg width="26" height="27" viewBox="0 0 26 27" fill="none" xmlns="http://www.w3.org/2000/svg">
<path d="M12.7768 2.70508C9.90568 2.70508 7.5781 4.8993 7.5781 7.60597C7.5781 10.3126 7.5781 11.2107 7.5781 11.2107H10.156C10.156 11.2107 10.156 8.97048 10.156 7.60597C10.156 6.24145 11.3294 5.13527 12.7768 5.13527C14.2243 5.13527 15.3977 6.24145 15.3977 7.60597C15.3977 8.97048 15.3977 11.2107 15.3977 11.2107H17.9756C17.9756 11.2107 17.9756 10.3126 17.9756 7.60597C17.9756 4.8993 15.648 2.70508 12.7768 2.70508Z" fill="#222222"/>
<path d="M5 12.4259V23.4427H20.5533V12.4259H5ZM13.4211 18.0746V20.0607H12.1322V18.0746C11.7473 17.8642 11.4877 17.4718 11.4877 17.023C11.4877 16.353 12.0659 15.8079 12.7766 15.8079C13.4874 15.8079 14.0656 16.353 14.0656 17.023C14.0656 17.4718 13.806 17.8642 13.4211 18.0746Z" fill="#222222"/>
</svg>
