<svg width="26" height="26" viewBox="0 0 26 26" fill="none" xmlns="http://www.w3.org/2000/svg">
<path d="M12.9614 2.59229C10.0902 2.59229 7.76267 4.78651 7.76267 7.49317C7.76267 10.1998 7.76267 11.098 7.76267 11.098H10.3406C10.3406 11.098 10.3406 8.85768 10.3406 7.49317C10.3406 6.12866 11.514 5.02248 12.9614 5.02248C14.4089 5.02248 15.5823 6.12866 15.5823 7.49317C15.5823 8.85768 15.5823 11.098 15.5823 11.098H18.1602C18.1602 11.098 18.1602 10.1998 18.1602 7.49317C18.1602 4.78651 15.8326 2.59229 12.9614 2.59229Z" fill="#222222"/>
<path d="M5.18457 12.3131V23.33H20.7379V12.3131H5.18457ZM13.6057 17.9618V19.9479H12.3167V17.9618C11.9319 17.7514 11.6723 17.359 11.6723 16.9102C11.6723 16.2402 12.2505 15.6951 12.9612 15.6951C13.6719 15.6951 14.2502 16.2402 14.2502 16.9102C14.2502 17.359 13.9906 17.7514 13.6057 17.9618Z" fill="#222222"/>
</svg>
