<svg width="27" height="26" viewBox="0 0 27 26" fill="none" xmlns="http://www.w3.org/2000/svg">
<path d="M3.73931 6.24936C3.62562 6.48334 3.55664 6.74196 3.55664 7.01821V18.9823C3.55664 19.2584 3.62554 19.517 3.73915 19.7509L10.5957 13.0002L3.73931 6.24936Z" fill="#222222"/>
<path d="M16.3962 13.8462L14.3145 15.8161C14.1958 15.9329 14.0404 15.9913 13.885 15.9913C13.7296 15.9913 13.5741 15.9329 13.4554 15.8161L11.4547 13.8462L4.59808 20.5969C4.83576 20.7089 5.09858 20.7769 5.37923 20.7769H22.4716C22.7522 20.7769 23.0149 20.709 23.2525 20.5971L16.3962 13.8462Z" fill="#222222"/>
<path d="M24.112 6.24974L17.2554 13.0004L24.1117 19.7512C24.2254 19.5173 24.2944 19.2586 24.2944 18.9824V7.01831C24.2944 6.74222 24.2256 6.48364 24.112 6.24974Z" fill="#222222"/>
<path d="M22.4717 5.22363H5.37933C5.09876 5.22363 4.8361 5.29155 4.59846 5.40349L13.885 14.5472L15.9664 12.5776L23.2529 5.40365C23.0152 5.29163 22.7524 5.22363 22.4717 5.22363Z" fill="#222222"/>
</svg>
