<svg width="25" height="25" viewBox="0 0 25 25" fill="none" xmlns="http://www.w3.org/2000/svg">
<path d="M17.0002 2C14.2312 2 11.9864 4.11616 11.9864 6.72655C11.9864 9.33693 11.9864 10.2031 11.9864 10.2031H14.4726C14.4726 10.2031 14.4726 8.04252 14.4726 6.72655C14.4726 5.41057 15.6042 4.34374 17.0002 4.34374C18.3962 4.34374 19.5278 5.41057 19.5278 6.72655C19.5278 8.04252 19.5278 10.2031 19.5278 10.2031H22.014C22.014 10.2031 22.014 9.33693 22.014 6.72655C22.014 4.11616 19.7692 2 17.0002 2Z" fill="#222222"/>
<path d="M9.5 11.375V22H24.5V11.375H9.5ZM17.6215 16.8228V18.7383H16.3785V16.8228C16.0073 16.6199 15.7569 16.2414 15.7569 15.8086C15.7569 15.1624 16.3146 14.6367 17 14.6367C17.6854 14.6367 18.2431 15.1624 18.2431 15.8086C18.2431 16.2414 17.9927 16.6199 17.6215 16.8228Z" fill="#222222"/>
</svg>
