<svg width="39" height="39" viewBox="0 0 39 39" fill="none" xmlns="http://www.w3.org/2000/svg">
<rect x="4.5979" y="4.76636" width="29.1215" height="29.1215" rx="5.3645" stroke="#C94A21" stroke-width="1.53271"/>
<path fill-rule="evenodd" clip-rule="evenodd" d="M9.9624 5.53271C7.42292 5.53271 5.36426 7.59137 5.36426 10.1309V28.5234C5.36426 31.0629 7.42292 33.1216 9.9624 33.1216H28.355C30.8944 33.1216 32.9531 31.0629 32.9531 28.5234V10.1309C32.9531 7.59137 30.8944 5.53271 28.355 5.53271H9.9624ZM28.344 14.2801C28.9425 13.6815 28.9425 12.7111 28.344 12.1125C27.7454 11.5139 26.7749 11.5139 26.1764 12.1125L16.4217 21.8672L12.5789 18.0244C11.9803 17.4258 11.0099 17.4258 10.4113 18.0244C9.81276 18.6229 9.81276 19.5934 10.4113 20.192L15.3379 25.1185C15.9365 25.7171 16.9069 25.7171 17.5055 25.1185L28.344 14.2801Z" fill="#C94A21"/>
</svg>
